<?xml version="1.0" encoding="UTF-8"?><svg id="Ebene_1" xmlns="http://www.w3.org/2000/svg" viewBox="0 0 575 129"><defs><style>.cls-1{fill:#05d282;}.cls-1,.cls-2{stroke-width:0px;}.cls-2{fill:#fff;}</style></defs><path class="cls-2" d="m137.98,51.87h9.27v4.82c2.75-3.42,6.85-5.48,11.24-5.63v9.05c-.84-.19-1.7-.29-2.56-.29-3.07,0-7.15,1.76-8.68,4.03v23.27h-9.27v-35.25Z"/><path class="cls-2" d="m185.41,74.28c-1.88-2.1-4.62-3.23-7.43-3.07-3.66,0-6.64,1.89-6.64,5.33s2.94,5.17,6.64,5.17c2.81.17,5.55-.96,7.43-3.06v-4.38Zm0,9.2c-2.9,3.04-6.97,4.69-11.17,4.53-5.61,0-12.25-3.81-12.25-11.68s6.64-11.24,12.25-11.24c4.67,0,8.82,1.47,11.17,4.3v-4.89c0-3.57-3.06-5.88-7.73-5.88-3.84,0-7.53,1.49-10.29,4.16l-3.51-6.2c4.27-3.7,9.75-5.7,15.4-5.64,8.01,0,15.35,3.28,15.35,13.41v22.77h-9.27l.04-3.64Z"/><path class="cls-2" d="m221.08,79.74c5.41,0,8.98-4.08,8.98-10.21s-3.57-10.28-8.98-10.28c-3.13.08-6.06,1.58-7.95,4.08v12.47c1.92,2.45,4.84,3.89,7.95,3.94m-17.2-41.3h9.27v17.95c2.56-3.43,6.59-5.46,10.87-5.47,8.98,0,15.62,7.01,15.62,18.54s-6.71,18.53-15.62,18.53c-4.27-.01-8.29-2.01-10.87-5.41v4.53h-9.27v-48.67Z"/><path class="cls-2" d="m272.03,69.46c0-5.47-3.28-10.21-9.05-10.21s-8.96,4.75-8.96,10.28,3.2,10.29,8.96,10.29,9.05-4.8,9.05-10.36m-27.65,0c0-9.99,7.01-18.47,18.6-18.47s18.69,8.48,18.69,18.47-7.01,18.54-18.69,18.54-18.6-8.48-18.6-18.54"/><path class="cls-2" d="m290.35,78.36v-18.39h-5.88v-8.1h5.88v-9.64h9.34v9.64h7.15v8.1h-7.15v15.94c0,2.19,1.16,3.86,3.2,3.86,1.16.04,2.29-.32,3.22-1.01l1.97,7.01c-1.38,1.23-3.86,2.26-7.73,2.26-6.49-.03-10.01-3.39-10.01-9.67"/><path class="cls-2" d="m317.95,76.1c3.25,0,5.88,2.63,5.88,5.88s-2.63,5.88-5.88,5.88-5.88-2.63-5.88-5.88c.06-3.22,2.65-5.82,5.88-5.88"/><path class="cls-2" d="m70.43,47.47c-3.15.01-5.71-2.53-5.72-5.68,0-1.53.61-3,1.69-4.07l13.05-13.02c2.22-2.22,5.83-2.22,8.05,0,2.22,2.22,2.22,5.83,0,8.05l-13.05,13.05c-1.07,1.07-2.51,1.68-4.03,1.68"/><path class="cls-2" d="m83.98,61.01c-3.15,0-5.7-2.56-5.69-5.71,0-1.51.6-2.95,1.66-4.01l13.05-13.05c2.29-2.17,5.89-2.07,8.06.22,2.08,2.19,2.08,5.63,0,7.83l-13.05,13.06c-1.07,1.07-2.53,1.66-4.04,1.66"/><path class="cls-2" d="m38.33,87.52h0c-9.46-9.48-9.46-24.84,0-34.32l15.51-15.62c2.22-2.22,2.22-5.83,0-8.05-2.22-2.22-5.83-2.22-8.05,0l-15.56,15.53c-13.92,13.93-13.92,36.51,0,50.44l8.1-7.98Z"/><path class="cls-1" d="m96.2,71.9c-2.22-2.22-5.83-2.22-8.05,0l-15.54,15.56c-9.47,9.44-24.79,9.44-34.26,0l-8.07,8.11c13.93,13.88,36.45,13.88,50.38,0l15.54-15.62c2.22-2.21,2.24-5.8.03-8.02l-.03-.03"/><path class="cls-1" d="m337.72,66.09h17.13c-.22-3.31-2.52-7.7-8.57-7.7-5.69,0-8.13,4.25-8.57,7.7m8.57-14.97c10.37,0,17.42,7.77,17.42,19.15v2.01h-25.84c.58,4.39,4.1,8.06,10.01,8.06,3.24,0,7.05-1.29,9.29-3.45l4.03,5.9c-3.45,3.17-8.92,4.82-14.32,4.82-10.58,0-18.57-7.13-18.57-18.29,0-10.08,7.41-18.21,17.99-18.21"/><path class="cls-1" d="m394.31,65.73c0-4.82-2.52-6.48-6.41-6.48-3.6,0-6.41,2.02-7.92,4.1v23.4h-9.14v-34.77h9.14v4.54c2.23-2.66,6.48-5.4,12.17-5.4,7.63,0,11.3,4.32,11.3,11.09v24.55h-9.14v-21.02Z"/><path class="cls-1" d="m420.22,66.09h17.13c-.22-3.31-2.52-7.7-8.57-7.7-5.69,0-8.13,4.25-8.57,7.7m8.57-14.97c10.37,0,17.42,7.77,17.42,19.15v2.01h-25.84c.58,4.39,4.1,8.06,10.01,8.06,3.24,0,7.05-1.29,9.29-3.45l4.03,5.9c-3.45,3.17-8.92,4.82-14.32,4.82-10.58,0-18.57-7.13-18.57-18.29,0-10.08,7.42-18.21,18-18.21"/><path class="cls-1" d="m453.34,51.98h9.14v4.75c2.45-3.1,6.77-5.54,11.08-5.54v8.93c-.65-.14-1.51-.29-2.52-.29-3.02,0-7.06,1.73-8.57,3.96v22.96h-9.14v-34.77Z"/><path class="cls-1" d="m503.59,63.21c-1.51-2.3-4.82-3.96-7.85-3.96-5.18,0-8.78,3.6-8.78,9.57s3.6,9.58,8.78,9.58c3.02,0,6.33-1.73,7.85-3.96v-11.23Zm-20.44,25.84c2.81,3.1,6.48,4.32,10.87,4.32s9.57-1.95,9.57-8.78v-3.53c-2.74,3.46-6.48,5.47-10.73,5.47-8.71,0-15.33-6.12-15.33-17.71s6.55-17.71,15.33-17.71c4.18,0,7.92,1.8,10.73,5.33v-4.46h9.21v32.39c0,13.25-10.22,16.48-18.79,16.48-5.98,0-10.58-1.37-14.97-5.18l4.1-6.62Z"/><path class="cls-1" d="m525.4,92.72c2.38,0,3.96-.65,4.82-2.52l1.29-2.95-14.11-35.27h9.79l9.07,24.19,9.07-24.19h9.86l-16.34,40.46c-2.59,6.55-7.2,8.28-13.17,8.42-1.08,0-3.38-.22-4.54-.5l1.37-8.21c.79.36,2.02.58,2.88.58"/></svg>