<?xml version="1.0" encoding="UTF-8"?>
<svg id="Inhalte" xmlns="http://www.w3.org/2000/svg" version="1.1" viewBox="0 0 566.9 87.9">
  <defs>
    <style>
      .cls-1 {
        fill: #090400;
      }

      .cls-1, .cls-2 {
        stroke-width: 0px;
      }

      .cls-2 {
        fill: #00a05c;
      }
    </style>
  </defs>
  <g>
    <path class="cls-1" d="M0,67.2V19.5h12.5v6.5c3.4-4.2,9.3-7.6,15.2-7.6v12.2c-.9-.2-2.1-.3-3.5-.3-4.1,0-9.7,2.3-11.8,5.3v31.5H0Z"/>
    <path class="cls-1" d="M64.2,67.2v-4.9c-3.3,3.9-8.9,6.1-15.1,6.1s-16.6-5.1-16.6-15.8,9-15.2,16.6-15.2,12,2,15.1,5.8v-6.6c0-4.8-4.1-8-10.5-8s-9.9,1.9-13.9,5.6l-4.7-8.4c5.8-5.1,13.3-7.5,20.8-7.5,10.9,0,20.8,4.3,20.8,18.1v30.8h-12.5ZM64.2,49.8c-2.1-2.8-6-4.1-10.1-4.1s-9,2.7-9,7.2,4.1,7,9,7,8-1.4,10.1-4.1v-5.9Z"/>
    <path class="cls-1" d="M89.2,67.2V1.3h12.5v24.3c3.8-4.8,9.1-7.3,14.7-7.3,12.2,0,21.1,9.5,21.1,25.1s-9.1,25-21.1,25-11-2.6-14.7-7.2v6h-12.5ZM101.7,51.9c2.1,3.1,6.7,5.3,10.8,5.3,7.3,0,12.2-5.5,12.2-13.8s-4.8-13.9-12.2-13.9-8.7,2.4-10.8,5.5v16.9Z"/>
    <path class="cls-1" d="M144,43.3c0-13.5,9.5-25,25.2-25s25.3,11.5,25.3,25-9.5,25.1-25.3,25.1-25.2-11.5-25.2-25.1ZM181.5,43.3c0-7.4-4.4-13.8-12.3-13.8s-12.2,6.4-12.2,13.8,4.3,13.9,12.2,13.9,12.3-6.4,12.3-13.9Z"/>
    <path class="cls-1" d="M206.3,55.3v-24.9h-7.9v-11h7.9V6.4h12.6v13h9.7v11h-9.7v21.5c0,3,1.6,5.2,4.3,5.2s3.7-.7,4.3-1.4l2.7,9.5c-1.9,1.7-5.2,3.1-10.5,3.1-8.8,0-13.5-4.5-13.5-13Z"/>
    <path class="cls-1" d="M243.6,52.3c4.3,0,8,3.7,8,8s-3.7,8-8,8-8-3.7-8-8,3.7-8,8-8Z"/>
  </g>
  <g>
    <path class="cls-2" d="M283.7,18.3c14.2,0,23.9,10.7,23.9,26.3v2.8h-35.5c.8,6,5.6,11.1,13.7,11.1s9.7-1.8,12.7-4.7l5.5,8.1c-4.8,4.4-12.3,6.6-19.7,6.6-14.5,0-25.5-9.8-25.5-25.1s10.2-25,24.7-25ZM272,38.8h23.5c-.3-4.5-3.5-10.6-11.8-10.6s-11.2,5.8-11.8,10.6Z"/>
    <path class="cls-2" d="M348.9,67.2v-28.8c0-6.6-3.5-8.9-8.8-8.9s-8.8,2.8-10.9,5.6v32.1h-12.5V19.5h12.5v6.2c3.1-3.7,8.9-7.4,16.7-7.4s15.5,5.9,15.5,15.2v33.7h-12.5Z"/>
    <path class="cls-2" d="M395.5,18.3c14.2,0,23.9,10.7,23.9,26.3v2.8h-35.5c.8,6,5.6,11.1,13.7,11.1s9.7-1.8,12.7-4.7l5.5,8.1c-4.8,4.4-12.3,6.6-19.7,6.6-14.5,0-25.5-9.8-25.5-25.1s10.2-25,24.7-25ZM383.8,38.8h23.5c-.3-4.5-3.5-10.6-11.8-10.6s-11.2,5.8-11.8,10.6Z"/>
    <path class="cls-2" d="M428.5,67.2V19.5h12.5v6.5c3.4-4.2,9.3-7.6,15.2-7.6v12.2c-.9-.2-2.1-.3-3.5-.3-4.1,0-9.7,2.3-11.8,5.3v31.5h-12.5Z"/>
    <path class="cls-2" d="M468.7,70.4c3.9,4.2,8.9,5.9,14.9,5.9s13.1-2.7,13.1-12.1v-4.8c-3.8,4.7-8.9,7.5-14.7,7.5-12,0-21-8.4-21-24.3s9-24.3,21-24.3,10.9,2.5,14.7,7.3v-6.1h12.6v44.5c0,18.2-14,22.6-25.8,22.6s-14.6-1.9-20.5-7.1l5.6-9.1ZM496.8,34.9c-2.1-3.2-6.6-5.4-10.8-5.4-7.1,0-12.1,4.9-12.1,13.1s4.9,13.1,12.1,13.1,8.7-2.4,10.8-5.4v-15.4Z"/>
    <path class="cls-2" d="M522.1,74.6c1.1.5,2.8.8,4,.8,3.3,0,5.4-.9,6.6-3.5l1.8-4.1-19.4-48.4h13.4l12.4,33.2,12.4-33.2h13.5l-22.4,55.5c-3.6,9-9.9,11.4-18.1,11.6-1.5,0-4.6-.3-6.2-.7l1.9-11.3Z"/>
  </g>
</svg>