<?xml version="1.0" encoding="UTF-8"?><svg id="Ebene_1" xmlns="http://www.w3.org/2000/svg" viewBox="0 0 258 256"><defs><style>.cls-1{fill:#05d282;}.cls-1,.cls-2{stroke-width:0px;}.cls-2{fill:#002337;}</style></defs><path class="cls-2" d="m153.35,83.03c-8.31.03-15.07-6.69-15.1-15-.01-4.04,1.6-7.92,4.47-10.75l34.44-34.37c5.87-5.87,15.39-5.87,21.25,0,5.87,5.87,5.87,15.39,0,21.26l-34.44,34.44c-2.81,2.83-6.64,4.42-10.63,4.42"/><path class="cls-2" d="m189.11,118.79c-8.31-.02-15.04-6.77-15.02-15.08,0-3.98,1.59-7.78,4.39-10.6l34.44-34.44c6.03-5.72,15.56-5.46,21.27.58,5.49,5.79,5.5,14.87.02,20.68l-34.44,34.48c-2.84,2.81-6.67,4.39-10.67,4.38"/><path class="cls-2" d="m68.6,188.76h0c-24.97-25.04-24.97-65.56,0-90.6l40.96-41.23c5.87-5.87,5.87-15.39,0-21.25-5.87-5.87-15.39-5.87-21.25,0l-41.07,40.99c-36.74,36.78-36.74,96.37,0,133.15l21.37-21.06Z"/><path class="cls-1" d="m221.38,147.53c-5.87-5.86-15.38-5.86-21.25,0l-41.03,41.07c-24.99,24.93-65.45,24.93-90.45,0l-21.29,21.41c36.76,36.63,96.23,36.63,132.99,0l41.03-41.23c5.87-5.82,5.91-15.3.08-21.17l-.08-.08"/></svg>